<svg width="195" height="60" viewBox="0 0 195 60" fill="none" xmlns="http://www.w3.org/2000/svg">
<rect y="0.478027" width="59.0439" height="59.0439" rx="10.3327" fill="#F3FFEA"/>
<path fill-rule="evenodd" clip-rule="evenodd" d="M24.5796 11.0569C22.4682 11.0584 20.7593 12.7719 20.7609 14.8834C20.7593 16.9948 22.4697 18.7083 24.5811 18.7098H28.4014V14.8849C28.4029 12.7735 26.6926 11.06 24.5796 11.0569C24.5811 11.0569 24.5811 11.0569 24.5796 11.0569ZM24.5796 21.2629H14.3954C12.284 21.2644 10.5736 22.9779 10.5752 25.0894C10.5721 27.2008 12.2824 28.9143 14.3939 28.9174H24.5796C26.691 28.9158 28.4014 27.2023 28.3998 25.0909C28.4014 22.9779 26.691 21.2644 24.5796 21.2629Z" fill="#36C5F0"/>
<path fill-rule="evenodd" clip-rule="evenodd" d="M48.7709 25.0894C48.7725 22.9779 47.0621 21.2644 44.9507 21.2629C42.8392 21.2644 41.1289 22.9779 41.1304 25.0894V28.9174H44.9507C47.0621 28.9158 48.7725 27.2023 48.7709 25.0894ZM38.5852 25.0894V14.8834C38.5867 12.7735 36.8779 11.06 34.7665 11.0569C32.6551 11.0584 30.9447 12.7719 30.9463 14.8834V25.0894C30.9432 27.2008 32.6535 28.9143 34.765 28.9174C36.8764 28.9158 38.5867 27.2023 38.5852 25.0894Z" fill="#2EB67D"/>
<path fill-rule="evenodd" clip-rule="evenodd" d="M34.7665 49.3298C36.8779 49.3283 38.5883 47.6148 38.5867 45.5034C38.5883 43.3919 36.8779 41.6784 34.7665 41.6769H30.9463V45.5034C30.9447 47.6132 32.6551 49.3267 34.7665 49.3298ZM34.7665 39.1223H44.9522C47.0637 39.1207 48.774 37.4072 48.7725 35.2958C48.7756 33.1844 47.0652 31.4709 44.9538 31.4678H34.7681C32.6567 31.4693 30.9463 33.1828 30.9479 35.2942C30.9463 37.4072 32.6551 39.1207 34.7665 39.1223Z" fill="#ECB22E"/>
<path fill-rule="evenodd" clip-rule="evenodd" d="M10.5752 35.296C10.5736 37.4074 12.284 39.1209 14.3954 39.1224C16.5068 39.1209 18.2172 37.4074 18.2156 35.296V31.4695H14.3954C12.284 31.471 10.5736 33.1845 10.5752 35.296ZM20.7609 35.296V45.5019C20.7578 47.6134 22.4681 49.3269 24.5796 49.33C26.691 49.3284 28.4014 47.6149 28.3998 45.5035V35.2991C28.4029 33.1876 26.6926 31.4742 24.5811 31.471C22.4681 31.471 20.7593 33.1845 20.7609 35.296Z" fill="#E01E5A"/>
<rect width="59.0439" height="59.0439" rx="10.3327" transform="matrix(-1 0 0 1 126.944 0.478027)" fill="#F3FFEA"/>
<path d="M78.4313 48.9985L81.1194 39.2421C79.4558 36.389 78.5817 33.1431 78.5817 29.8317C78.5911 19.4485 87.0783 11.0017 97.511 11.0017C102.577 11.0017 107.323 12.9661 110.895 16.5207C114.467 20.0753 116.431 24.8085 116.431 29.8411C116.431 40.2243 107.934 48.6711 97.511 48.6711H97.5016C94.3342 48.6711 91.2232 47.876 88.4599 46.3793L78.4313 48.9985Z" fill="url(#paint0_linear_2375_46904)"/>
<path d="M77.7451 49.6814L80.5272 39.5789C78.8072 36.6136 77.9049 33.2554 77.9143 29.8224C77.9143 19.065 86.7117 10.3188 97.511 10.3188C102.756 10.3188 107.681 12.3487 111.374 16.0343C115.077 19.7198 117.117 24.6215 117.108 29.8318C117.108 40.5891 108.31 49.3353 97.5016 49.3353H97.4922C94.212 49.3353 90.9881 48.5121 88.1215 46.9593L77.7451 49.6814ZM88.6196 43.4328L89.2118 43.7883C91.7119 45.2662 94.5785 46.0426 97.5016 46.052H97.511C106.487 46.052 113.799 38.7838 113.799 29.8411C113.799 25.5101 112.107 21.441 109.034 18.3728C105.961 15.3046 101.863 13.6209 97.511 13.6209C88.535 13.6115 81.2227 20.8798 81.2227 29.8224C81.2227 32.8812 82.078 35.8652 83.7134 38.447L84.0988 39.0644L82.454 45.0417L88.6196 43.4328Z" fill="url(#paint1_linear_2375_46904)"/>
<path fill-rule="evenodd" clip-rule="evenodd" d="M92.6142 21.6651C92.2476 20.8513 91.8622 20.8326 91.5145 20.8233C91.2325 20.8139 90.9036 20.8139 90.5746 20.8139C90.2456 20.8139 89.7193 20.9355 89.2682 21.4219C88.817 21.9084 87.5576 23.087 87.5576 25.491C87.5576 27.8857 89.3151 30.2056 89.5595 30.533C89.8039 30.8604 92.9525 35.9397 97.9245 37.8947C102.06 39.5224 102.906 39.195 103.799 39.1108C104.692 39.0266 106.694 37.9321 107.107 36.7909C107.511 35.6497 107.511 34.6769 107.389 34.4711C107.267 34.2653 106.938 34.1437 106.449 33.9005C105.961 33.6573 103.554 32.4786 103.103 32.3103C102.652 32.1512 102.323 32.067 102.004 32.5535C101.675 33.0399 100.735 34.1343 100.453 34.4617C100.171 34.7891 99.8795 34.8265 99.3908 34.5833C98.902 34.3401 97.323 33.8256 95.4526 32.1606C93.9958 30.8697 93.0089 29.2701 92.7269 28.7837C92.445 28.2973 92.6987 28.0354 92.9431 27.7922C93.1593 27.577 93.4319 27.2216 93.6762 26.9409C93.9206 26.6603 94.0052 26.4545 94.165 26.1271C94.3248 25.7997 94.2496 25.5191 94.1274 25.2759C94.0052 25.042 93.0465 22.6286 92.6142 21.6651Z" fill="white"/>
<rect width="59.0439" height="59.0439" rx="10.3327" transform="matrix(-1 0 0 1 194.845 0.478027)" fill="#F3FFEA"/>
<path d="M166.561 23.395C169.753 23.395 172.341 20.8072 172.341 17.615C172.341 14.4228 169.753 11.835 166.561 11.835C163.369 11.835 160.781 14.4228 160.781 17.615C160.781 20.8072 163.369 23.395 166.561 23.395Z" fill="#7B83EB"/>
<path d="M166.149 18.8538H160.915L160.941 18.9689L160.944 18.9788L160.969 19.0854C161.755 22.0639 164.789 23.9193 167.798 23.2615V20.5046C167.796 19.6001 167.052 18.8565 166.148 18.8538H166.149Z" fill="black" fill-opacity="0.098039"/>
<path d="M164.911 20.0923H161.339C162.294 22.1063 164.332 23.3954 166.562 23.3954V21.7444C166.559 20.8397 165.815 20.0962 164.911 20.0935V20.0923Z" fill="black" fill-opacity="0.2"/>
<path d="M179.565 23.8077C181.959 23.8077 183.9 21.8669 183.9 19.4729C183.9 17.0789 181.959 15.1382 179.565 15.1382C177.171 15.1382 175.23 17.0789 175.23 19.4729C175.23 21.8669 177.171 23.8077 179.565 23.8077Z" fill="#5059C9"/>
<path d="M183.282 25.0459H173.546C173.112 25.0459 172.755 25.4031 172.755 25.8373V35.8812C172.699 38.8662 174.758 41.5062 177.667 42.179C178.086 42.2669 178.512 42.311 178.94 42.311C182.34 42.311 185.138 39.5151 185.14 36.1154V26.9035C185.14 25.8845 184.301 25.0459 183.282 25.0459Z" fill="#5059C9"/>
<path d="M176.47 26.9037V38.6747C176.47 44.1065 172 48.5762 166.568 48.5762C163.034 48.5762 159.758 46.6842 157.992 43.623C157.754 43.2269 157.547 42.8127 157.373 42.3845C157.21 41.9807 157.074 41.5671 156.964 41.1461C156.76 40.3361 156.656 39.5043 156.654 38.6691V26.9035C156.654 26.9028 156.654 26.9019 156.654 26.9012C156.654 25.8834 157.492 25.0459 158.51 25.0459H174.615C175.632 25.0459 176.47 25.8834 176.47 26.9012V26.9037Z" fill="#7B83EB"/>
<path d="M164.912 20.0923H161.34C162.295 22.1063 164.333 23.3954 166.563 23.3954V21.7444C166.56 20.8397 165.816 20.0962 164.912 20.0935V20.0923Z" fill="black" fill-opacity="0.2"/>
<path d="M167.801 25.0459V40.7373C167.801 41.5038 167.262 42.1723 166.513 42.335C166.396 42.3696 166.275 42.3863 166.153 42.3845H157.373C157.21 41.9807 157.074 41.5671 156.964 41.1461C156.76 40.3361 156.656 39.5042 156.654 38.6691V26.9035C156.654 26.9028 156.654 26.9019 156.654 26.9012C156.654 25.8834 157.492 25.0459 158.51 25.0459H167.801Z" fill="black" fill-opacity="0.098039"/>
<path d="M166.562 25.0459V41.9758C166.564 42.0974 166.547 42.2184 166.513 42.335C166.35 43.084 165.681 43.623 164.915 43.623H157.992C157.754 43.2269 157.547 42.8127 157.373 42.3845C157.21 41.9807 157.074 41.5671 156.964 41.1461C156.76 40.3361 156.656 39.5042 156.654 38.6691V26.9035C156.654 26.9028 156.654 26.9019 156.654 26.9012C156.654 25.8834 157.492 25.0459 158.51 25.0459H166.562ZM166.562 25.0459V39.4988C166.558 40.401 165.817 41.1419 164.915 41.1461H156.964C156.76 40.3361 156.656 39.5042 156.654 38.6691V26.9035C156.654 26.9028 156.654 26.9019 156.654 26.9012C156.654 25.8834 157.492 25.0459 158.51 25.0459H166.562ZM158.512 25.0459C158.511 25.0459 158.51 25.0459 158.51 25.0459C157.492 25.0459 156.654 25.8834 156.654 26.9012V38.6691C156.656 39.5042 156.76 40.3361 156.964 41.1461H163.676C164.579 41.1419 165.319 40.401 165.324 39.4988V25.0459H158.512Z" fill="black" fill-opacity="0.2"/>
<path d="M147.159 20.0923H163.671C164.577 20.0923 165.322 20.8375 165.322 21.7431V38.2558C165.322 39.1614 164.577 39.9066 163.671 39.9066H147.159C146.253 39.9066 145.508 39.1614 145.508 38.2558V21.7431C145.508 20.8375 146.253 20.0923 147.159 20.0923Z" fill="#4B53BC"/>
<path d="M160.344 26.2533H156.643V36.186H154.21V26.2533H150.487V23.8135H160.344V26.2533Z" fill="white"/>
<defs>
<linearGradient id="paint0_linear_2375_46904" x1="97.4254" y1="49.6795" x2="97.4254" y2="10.3175" gradientUnits="userSpaceOnUse">
<stop stop-color="#20B038"/>
<stop offset="1" stop-color="#60D66A"/>
</linearGradient>
<linearGradient id="paint1_linear_2375_46904" x1="97.4302" y1="49.6777" x2="97.4302" y2="10.3188" gradientUnits="userSpaceOnUse">
<stop stop-color="#F9F9F9"/>
<stop offset="1" stop-color="white"/>
</linearGradient>
</defs>
</svg>
