<svg width="866" height="807" viewBox="0 0 866 807" fill="none" xmlns="http://www.w3.org/2000/svg">
<path d="M689.371 632.452L445.293 796.55C443.302 797.89 441.031 798.618 438.706 798.66C436.382 798.702 434.086 798.057 432.047 796.789L16.055 537.279C14.011 536.004 12.2992 534.148 11.0917 531.896C9.88415 529.644 9.22337 527.077 9.17606 524.453C9.12876 521.829 9.69661 519.239 10.8222 516.946C11.9478 514.652 13.5916 512.735 15.5883 511.387L120.006 441.195C121.997 439.855 124.269 439.127 126.593 439.085C128.917 439.043 131.213 439.689 133.252 440.956L517.843 680.88C519.882 682.148 522.178 682.793 524.502 682.751C526.826 682.709 529.098 681.981 531.089 680.641L647.989 602.096C649.98 600.756 652.251 600.028 654.576 599.986C656.9 599.944 659.196 600.589 661.234 601.857L689.191 619.294C690.225 619.949 691.09 620.897 691.698 622.044C692.306 623.192 692.636 624.497 692.654 625.83C692.672 627.163 692.379 628.477 691.802 629.639C691.226 630.801 690.388 631.771 689.371 632.452V632.452Z" fill="black"/>
<path d="M776.03 446.378C776.874 446.884 777.582 447.634 778.083 448.551C778.583 449.468 778.857 450.517 778.877 451.591C778.896 452.664 778.66 453.723 778.193 454.657C777.726 455.591 777.045 456.366 776.22 456.903L608.972 569.416L530.275 622.319C528.211 623.711 525.856 624.467 523.446 624.51C521.036 624.553 518.655 623.883 516.543 622.567L170.997 406.871L101.514 363.524C99.3947 362.205 97.6196 360.283 96.3674 357.951C95.1152 355.618 94.4301 352.958 94.3811 350.239C94.3321 347.52 94.9209 344.837 96.0882 342.461C97.2555 340.085 98.9602 338.1 101.03 336.706L202.212 268.678C204.276 267.286 206.63 266.531 209.04 266.487C211.451 266.444 213.831 267.114 215.944 268.43L604.302 510.687C606.414 512.003 608.795 512.673 611.205 512.63C613.615 512.586 615.97 511.831 618.034 510.439L738.982 429.147C740.358 428.222 741.927 427.72 743.532 427.691C745.137 427.663 746.723 428.107 748.131 428.982L776.03 446.378Z" fill="#D9D9D9"/>
<path d="M849.322 267.971C851.516 269.334 853.354 271.322 854.65 273.735C855.947 276.148 856.657 278.901 856.708 281.715C856.758 284.529 856.148 287.305 854.939 289.763C853.73 292.222 851.965 294.275 849.822 295.716L742.575 367.833L698.086 397.736L617.337 452.024C615.204 453.466 612.768 454.248 610.276 454.293C607.783 454.338 605.321 453.644 603.137 452.28L253.469 234.217L208.041 205.829L189.113 193.957C186.919 192.594 185.081 190.606 183.784 188.193C182.487 185.78 181.777 183.027 181.727 180.213C181.676 177.399 182.286 174.623 183.495 172.164C184.704 169.706 186.469 167.653 188.613 166.212L421.116 9.90293C423.249 8.46171 425.685 7.67937 428.177 7.63444C430.67 7.58951 433.132 8.28359 435.316 9.64699L849.322 267.971Z" fill="black"/>
</svg>
