<svg xmlns="http://www.w3.org/2000/svg" viewBox="0 0 208.948 36.647">
  <g id="Group_2" data-name="Group 2">
    <g id="Group_1" data-name="Group 1">
      <path id="Path_1" data-name="Path 1" d="M-1246.3,124.544l1.776-1.776a2.709,2.709,0,0,0,.65-2.783l-2.747-8.125-7.991-2.687a2.708,2.708,0,0,0-2.779.652l-1.815,1.814a2.709,2.709,0,0,0,0,3.831l4.538,4.537,4.537,4.537A2.709,2.709,0,0,0-1246.3,124.544Z" transform="translate(1260 -88.69)" fill="#a80754"/>
      <path id="Path_2" data-name="Path 2" d="M-1148.193.794l-1.776,1.776a2.709,2.709,0,0,0-.651,2.783l2.747,8.125,7.991,2.687a2.709,2.709,0,0,0,2.779-.652l1.814-1.814a2.709,2.709,0,0,0,0-3.831l-9.074-9.074A2.708,2.708,0,0,0-1148.193.794Z" transform="translate(1171.142 0)" fill="#a80754"/>
      <path id="Path_3" data-name="Path 3" d="M-1259.207,13.7l1.776,1.776a2.709,2.709,0,0,0,2.783.651l8.125-2.747,2.687-7.991a2.709,2.709,0,0,0-.652-2.779L-1246.3.794a2.709,2.709,0,0,0-3.831,0l-4.537,4.537-4.537,4.537A2.709,2.709,0,0,0-1259.207,13.7Z" transform="translate(1260 0)" fill="#a80754"/>
      <path id="Path_4" data-name="Path 4" d="M-1135.457,111.807l-1.776-1.776a2.709,2.709,0,0,0-2.783-.651l-8.125,2.747-2.687,7.991a2.709,2.709,0,0,0,.652,2.779l1.814,1.814a2.709,2.709,0,0,0,3.831,0l9.074-9.074A2.708,2.708,0,0,0-1135.457,111.807Z" transform="translate(1171.31 -88.858)" fill="#a80754"/>
    </g>
  </g>
  <g id="Group_4" data-name="Group 4" transform="translate(52.6 5.833)">
    <path id="Path_5" data-name="Path 5" d="M-671.114,32.856V32.4a.493.493,0,0,0-.274-.442l-1.4-.692-1.374.682a.492.492,0,0,0-.274.441v.467a.493.493,0,0,0,.493.493h2.335A.493.493,0,0,0-671.114,32.856Z" transform="translate(731.078 -31.266)" fill="#a80754"/>
    <g id="Group_3" data-name="Group 3" transform="translate(0 5.03)">
      <path id="Path_6" data-name="Path 6" d="M-960.354,62.092V78.573A1.247,1.247,0,0,1-961.6,79.82h-.082a1.247,1.247,0,0,1-1.247-1.247V69.954a1.247,1.247,0,0,0-2.305-.658l-2.925,4.7a1.247,1.247,0,0,1-2.117,0l-2.926-4.7a1.247,1.247,0,0,0-2.305.659v8.62a1.247,1.247,0,0,1-1.247,1.247h-.054a1.247,1.247,0,0,1-1.247-1.247V62.092a1.247,1.247,0,0,1,1.247-1.247h1.3v.028l5.231,8.408a1.247,1.247,0,0,0,2.117,0l5.23-8.408.026-.028h1.3A1.247,1.247,0,0,1-960.354,62.092Z" transform="translate(978.055 -60.357)" fill="#1d2040"/>
      <path id="Path_7" data-name="Path 7" d="M-854.816,60.845a1.247,1.247,0,0,1,1.149.763l7.675,18.212h-1.858A1.246,1.246,0,0,1-849,79.058l-1.66-3.927a1.247,1.247,0,0,0-1.148-.761h-6.828a1.246,1.246,0,0,0-1.15.766l-1.636,3.917a1.247,1.247,0,0,1-1.15.766h0a1.247,1.247,0,0,1-1.149-1.731l6.946-16.481a1.247,1.247,0,0,1,1.149-.763Zm-1.708,11.032h2.609a1.247,1.247,0,0,0,1.149-1.73l-1.3-3.087a1.247,1.247,0,0,0-2.3,0l-1.31,3.087A1.247,1.247,0,0,0-856.523,71.877Z" transform="translate(885.133 -60.357)" fill="#1d2040"/>
      <path id="Path_8" data-name="Path 8" d="M-740.34,78.573h0a1.247,1.247,0,0,1-1.247,1.247h-9.433a1.247,1.247,0,0,1-1.247-1.247V62.092a1.247,1.247,0,0,1,1.247-1.247h.054a1.247,1.247,0,0,1,1.247,1.247V76.079a1.247,1.247,0,0,0,1.247,1.247h6.886A1.247,1.247,0,0,1-740.34,78.573Z" transform="translate(794.39 -60.357)" fill="#1d2040"/>
      <path id="Path_9" data-name="Path 9" d="M-671.115,60.845h.054a1.247,1.247,0,0,1,1.247,1.247V78.573a1.247,1.247,0,0,1-1.247,1.247h-.054a1.247,1.247,0,0,1-1.247-1.247V62.092A1.247,1.247,0,0,1-671.115,60.845Z" transform="translate(729.392 -60.357)" fill="#1d2040"/>
      <path id="Path_10" data-name="Path 10" d="M-622.159,60.994a6.469,6.469,0,0,1,2.561.514,6.62,6.62,0,0,1,2.1,1.409,6.8,6.8,0,0,1,1.422,2.1,6.311,6.311,0,0,1,.529,2.561,6.379,6.379,0,0,1-.529,2.59,6.8,6.8,0,0,1-1.422,2.1,6.6,6.6,0,0,1-2.1,1.409,6.444,6.444,0,0,1-2.561.516h-3.688a1.247,1.247,0,0,0-1.247,1.247v3.253a1.247,1.247,0,0,1-1.247,1.247h-.054a1.247,1.247,0,0,1-1.247-1.247V62.241a1.247,1.247,0,0,1,1.247-1.247Zm0,10.707a3.815,3.815,0,0,0,1.571-.326,4.215,4.215,0,0,0,1.288-.88,4.014,4.014,0,0,0,.867-1.3,4.157,4.157,0,0,0,.312-1.613,4.093,4.093,0,0,0-.312-1.586,4.012,4.012,0,0,0-.867-1.3,4.246,4.246,0,0,0-1.288-.882,3.814,3.814,0,0,0-1.571-.325h-3.688a1.247,1.247,0,0,0-1.247,1.247v5.72a1.247,1.247,0,0,0,1.247,1.247Z" transform="translate(694.641 -60.478)" fill="#1d2040"/>
      <path id="Path_11" data-name="Path 11" d="M-529.581,58.228a9.646,9.646,0,0,1,3.877.787,10.121,10.121,0,0,1,3.171,2.141,10.143,10.143,0,0,1,2.141,3.171,9.647,9.647,0,0,1,.787,3.877,9.643,9.643,0,0,1-.787,3.877,10.128,10.128,0,0,1-2.141,3.171,10.12,10.12,0,0,1-3.171,2.141,9.649,9.649,0,0,1-3.877.787,9.717,9.717,0,0,1-3.9-.787,9.945,9.945,0,0,1-3.158-2.141,10.265,10.265,0,0,1-2.128-3.171,9.664,9.664,0,0,1-.786-3.877,9.668,9.668,0,0,1,.786-3.877,10.281,10.281,0,0,1,2.128-3.171,9.946,9.946,0,0,1,3.158-2.141A9.714,9.714,0,0,1-529.581,58.228Zm0,17.458a7.157,7.157,0,0,0,2.887-.583,7.431,7.431,0,0,0,2.345-1.6,7.622,7.622,0,0,0,1.586-2.384,7.38,7.38,0,0,0,.583-2.915,7.278,7.278,0,0,0-.583-2.9,7.673,7.673,0,0,0-1.586-2.373,7.609,7.609,0,0,0-2.345-1.612,7.023,7.023,0,0,0-2.887-.6,7.109,7.109,0,0,0-2.9.6,7.539,7.539,0,0,0-2.359,1.612,7.643,7.643,0,0,0-1.586,2.373,7.251,7.251,0,0,0-.583,2.9,7.352,7.352,0,0,0,.583,2.915,7.592,7.592,0,0,0,1.586,2.384,7.366,7.366,0,0,0,2.359,1.6A7.245,7.245,0,0,0-529.581,75.686Z" transform="translate(621.363 -58.228)" fill="#1d2040"/>
      <path id="Path_12" data-name="Path 12" d="M-403.347,60.994a6.47,6.47,0,0,1,2.561.514,6.619,6.619,0,0,1,2.1,1.409,6.8,6.8,0,0,1,1.422,2.1,6.306,6.306,0,0,1,.529,2.561,6.374,6.374,0,0,1-.529,2.59,6.794,6.794,0,0,1-1.422,2.1,6.594,6.594,0,0,1-2.1,1.409,6.445,6.445,0,0,1-2.561.516h-3.688a1.247,1.247,0,0,0-1.247,1.247v3.253a1.247,1.247,0,0,1-1.247,1.247h-.054a1.247,1.247,0,0,1-1.247-1.247V62.241a1.247,1.247,0,0,1,1.247-1.247Zm0,10.707a3.816,3.816,0,0,0,1.571-.326,4.215,4.215,0,0,0,1.288-.88,4.017,4.017,0,0,0,.867-1.3,4.156,4.156,0,0,0,.312-1.613,4.092,4.092,0,0,0-.312-1.586,4.014,4.014,0,0,0-.867-1.3,4.246,4.246,0,0,0-1.288-.882,3.815,3.815,0,0,0-1.571-.325h-3.688a1.247,1.247,0,0,0-1.247,1.247v5.72a1.247,1.247,0,0,0,1.247,1.247Z" transform="translate(516.651 -60.478)" fill="#1d2040"/>
      <path id="Path_13" data-name="Path 13" d="M-314.173,60.845a1.247,1.247,0,0,1,1.149.763l7.675,18.212h-1.858a1.247,1.247,0,0,1-1.148-.761l-1.66-3.927a1.247,1.247,0,0,0-1.148-.761h-6.828a1.247,1.247,0,0,0-1.151.766l-1.636,3.917a1.247,1.247,0,0,1-1.15.766h0a1.247,1.247,0,0,1-1.149-1.731l6.946-16.481a1.246,1.246,0,0,1,1.149-.763Zm-1.708,11.032h2.609a1.247,1.247,0,0,0,1.149-1.73l-1.3-3.087a1.247,1.247,0,0,0-2.3,0l-1.31,3.087A1.247,1.247,0,0,0-315.88,71.877Z" transform="translate(445.353 -60.357)" fill="#1d2040"/>
      <path id="Path_14" data-name="Path 14" d="M-211.861,60.845l-6.768,10.535a1.248,1.248,0,0,0-.2.674v6.519a1.247,1.247,0,0,1-1.247,1.247h-.055a1.247,1.247,0,0,1-1.247-1.247V72.054a1.246,1.246,0,0,0-.2-.674l-6.768-10.535h2.3a1.246,1.246,0,0,1,1.05.575l3.841,6a1.247,1.247,0,0,0,2.1,0l3.842-6a1.247,1.247,0,0,1,1.05-.574Z" transform="translate(368.209 -60.357)" fill="#1d2040"/>
    </g>
  </g>
</svg>
