<svg width="112" height="40" viewBox="0 0 112 40" fill="none" xmlns="http://www.w3.org/2000/svg">
<g clip-path="url(#clip0_2460_29415)">
<path fill-rule="evenodd" clip-rule="evenodd" d="M74.7734 34.9996H75.9017V36.1568C75.6703 36.3015 75.3234 36.3941 74.9589 36.3941C73.9865 36.3941 73.4082 35.7287 73.4082 34.6872C73.4082 33.7267 74.027 33.0613 74.9589 33.0613C75.3639 33.0613 75.7339 33.1828 76.0522 33.3911L76.3071 33.0324C75.9194 32.7778 75.4623 32.6331 74.947 32.6331C73.7146 32.6331 72.9045 33.4837 72.9045 34.6872C72.9045 35.9717 73.6918 36.8222 74.947 36.8222C75.4797 36.8222 75.983 36.6718 76.3588 36.4114V34.6235H74.7734V34.9996Z" fill="#644D3C"/>
<path fill-rule="evenodd" clip-rule="evenodd" d="M67.0577 35.9894L64.8069 32.7026H64.3093V36.7528H64.7835V33.4721L67.0288 36.7528H67.5322V32.7026H67.0577V35.9894Z" fill="#644D3C"/>
<path fill-rule="evenodd" clip-rule="evenodd" d="M58.4453 36.7528H58.9371V32.7026H58.4453V36.7528Z" fill="#644D3C"/>
<path fill-rule="evenodd" clip-rule="evenodd" d="M51.273 36.2035H51.2618L50.0174 32.7026H49.4739L50.9779 36.7528H51.5565L53.0725 32.7026H52.5286L51.273 36.2035Z" fill="#644D3C"/>
<path fill-rule="evenodd" clip-rule="evenodd" d="M43.6091 36.7528H44.1009V32.7026H43.6091V36.7528Z" fill="#644D3C"/>
<mask id="mask0_2460_29415" style="mask-type:luminance" maskUnits="userSpaceOnUse" x="0" y="9" width="39" height="28">
<path d="M0.730225 9.55127H38.237V36.7528H0.730225V9.55127Z" fill="white"/>
</mask>
<g mask="url(#mask0_2460_29415)">
<path fill-rule="evenodd" clip-rule="evenodd" d="M35.9686 32.7026H35.4768V36.7528H38.2368V36.3131H35.9686V32.7026Z" fill="#644D3C"/>
</g>
<mask id="mask1_2460_29415" style="mask-type:luminance" maskUnits="userSpaceOnUse" x="0" y="9" width="39" height="28">
<path d="M0.730225 9.55127H38.237V36.7528H0.730225V9.55127Z" fill="white"/>
</mask>
<g mask="url(#mask1_2460_29415)">
<path fill-rule="evenodd" clip-rule="evenodd" d="M3.58339 22.1485V12.0287C3.58339 10.6583 3.82062 10.0784 4.37415 9.60431L4.34779 9.55127H1.00088L0.974524 9.60431C1.60681 10.1839 1.76496 10.8692 1.76496 12.0287V22.1485C1.76496 23.5715 1.7386 24.8097 0.710938 25.8377L0.737296 25.8908H4.63742L4.66378 25.8377C3.63611 25.0206 3.58339 23.3603 3.58339 22.1485Z" fill="#644D3C"/>
</g>
<path fill-rule="evenodd" clip-rule="evenodd" d="M11.7817 11.6336C11.413 11.2115 11.0967 10.5265 11.0967 9.97269C11.0967 9.84154 11.123 9.68338 11.1494 9.57763L11.123 9.55127H8.30297L8.27661 9.60431C8.4084 9.7361 8.64563 10.1048 8.83014 10.4475C9.22552 11.2115 9.64726 11.9756 10.2532 12.714L19.6616 23.8087C20.1885 24.4414 20.7947 25.1 21.2165 25.785H21.2956C21.2428 24.6259 21.2428 23.5452 21.2428 22.8074L11.7817 11.6336Z" fill="#644D3C"/>
<path fill-rule="evenodd" clip-rule="evenodd" d="M29.0458 11.6336C28.6768 11.2115 28.3605 10.5265 28.3605 9.97269C28.3605 9.84154 28.3869 9.68338 28.4132 9.57763L28.3869 9.55127H25.5671L25.5408 9.60431C25.6726 9.7361 25.9098 10.1048 26.094 10.4475C26.4894 11.2115 26.9111 11.9756 27.517 12.714L36.9255 23.8087C37.4526 24.4414 38.0586 25.1 38.4803 25.785H38.5594C38.5067 24.6259 38.5067 23.5452 38.5067 22.8074L29.0458 11.6336Z" fill="#644D3C"/>
<path fill-rule="evenodd" clip-rule="evenodd" d="M44.1954 17.7209C44.1954 14.2426 45.1707 11.4228 47.6214 9.68346L47.595 9.6571C44.1163 10.7375 41.8765 14.1635 41.8765 17.7209C41.8765 21.5159 44.2745 24.6523 47.6477 25.8114L47.6741 25.7851C45.0652 23.9406 44.1954 20.6464 44.1954 17.7209Z" fill="#644D3C"/>
<path fill-rule="evenodd" clip-rule="evenodd" d="M64.8821 25.8908H65.8834C65.9622 25.5741 66.1207 24.9942 66.3843 24.2038L62.5369 12.5295C62.3787 12.0287 62.2469 11.4491 62.2469 11.0537C62.2469 10.5529 62.4314 10.0257 62.8792 9.60431L62.8528 9.55127H59.2427L59.2163 9.60431C59.7959 10.3417 59.9804 10.5793 60.4021 11.8705L64.4077 24.0457C64.724 24.9942 64.8558 25.5481 64.8821 25.8908Z" fill="#644D3C"/>
<path fill-rule="evenodd" clip-rule="evenodd" d="M84.4264 9.34076L84.3737 9.39348C84.3737 10.1312 84.2156 11.2383 84.2156 11.2646L84.2683 11.291C84.611 10.4739 85.3223 9.78886 85.9549 9.55131L85.9286 9.49891C85.2696 9.49891 84.69 9.44619 84.4264 9.34076Z" fill="#644D3C"/>
<path fill-rule="evenodd" clip-rule="evenodd" d="M91.7789 22.1485V10.9219C91.7789 9.99937 92.0953 9.7361 92.2531 9.60431L92.2267 9.55127H89.46L89.4337 9.60431C89.6969 9.81518 89.9605 10.1575 89.9605 10.9219V22.1485C89.9605 23.5715 89.9342 24.8097 88.9065 25.8377L88.9325 25.8908H92.8333L92.8597 25.8377C91.8317 25.0206 91.7789 23.3603 91.7789 22.1485Z" fill="#644D3C"/>
<path fill-rule="evenodd" clip-rule="evenodd" d="M97.5767 9.44621L97.524 9.39349C97.0756 9.49893 96.5227 9.49893 95.8638 9.49893L95.8374 9.55132C96.5227 9.78887 97.1814 10.3948 97.7349 11.4228L97.7876 11.3964C97.7613 11.1065 97.5504 10.4739 97.5504 9.89431C97.5504 9.73616 97.5504 9.60436 97.5767 9.44621Z" fill="#644D3C"/>
<path fill-rule="evenodd" clip-rule="evenodd" d="M78.9574 12.5292L78.958 12.5295C78.7999 12.0287 78.6681 11.4491 78.6681 11.0537C78.6681 10.5529 78.8526 10.026 79.3007 9.60431L79.2743 9.55127H76.1463L76.12 9.57763L79.3415 19.8681H74.8847L74.8252 20.0385H79.3952L80.4158 23.2552C80.5209 23.5979 80.6003 23.9405 80.6003 24.3623C80.6003 25.1 80.3631 25.5481 80.0731 25.8377L80.0995 25.8908H83.8418L83.8681 25.8377C83.051 24.9679 82.5766 23.9929 82.2342 22.9392L78.9574 12.5292Z" fill="#644D3C"/>
<path fill-rule="evenodd" clip-rule="evenodd" d="M74.2598 15.9073L74.1952 15.7009L71.3304 24.4003C70.9595 25.0544 70.3831 25.5858 70.0854 25.8378L70.1118 25.8908H72.062L72.0884 25.8378C71.701 25.4292 71.5789 24.8471 71.5464 24.4028L74.2598 15.9073Z" fill="#644D3C"/>
<path fill-rule="evenodd" clip-rule="evenodd" d="M72.1028 9.60431L72.0764 9.55127H70.0208L69.9944 9.60431C70.3107 9.89425 70.6797 10.5265 70.6797 11.2909C70.6797 11.3324 70.6756 11.3864 70.6704 11.4436L68.3721 18.5897L68.4589 18.854L70.8716 11.3662C71.2114 10.649 71.6759 9.96369 72.1028 9.60431Z" fill="#644D3C"/>
<path fill-rule="evenodd" clip-rule="evenodd" d="M103.588 9.63067L103.509 9.55127H101.005L100.979 9.60431C101.611 10.1839 101.769 10.8692 101.769 12.0287V22.1485C101.769 23.5715 101.743 24.8097 100.715 25.8377L100.742 25.8908H104.405L104.431 25.8377C103.588 25.047 103.588 23.9405 103.588 22.1485V9.63067Z" fill="#644D3C"/>
<path fill-rule="evenodd" clip-rule="evenodd" d="M109.122 16.7199L109.069 16.6935C108.911 17.0359 108.351 17.6492 107.62 17.6492H105.863V17.8193H107.62C108.351 17.8193 108.832 18.3799 109.096 18.7489L109.148 18.7225C109.096 18.4329 109.069 18.0375 109.069 17.6945C109.069 17.4576 109.069 16.9832 109.122 16.7199Z" fill="#644D3C"/>
<path fill-rule="evenodd" clip-rule="evenodd" d="M111.125 24.0457L111.072 24.0193C110.519 25.0473 109.86 25.6533 109.175 25.8908L109.201 25.9435C109.86 25.9435 110.413 25.9435 110.861 26.049L110.914 25.9962C110.888 25.8378 110.888 25.706 110.888 25.5482C110.888 24.9683 111.098 24.336 111.125 24.0457Z" fill="#644D3C"/>
<path fill-rule="evenodd" clip-rule="evenodd" d="M111.039 11.4228L111.091 11.3964C111.065 11.1065 110.854 10.4739 110.854 9.89431C110.854 9.73616 110.854 9.60436 110.88 9.44621L110.828 9.39349C110.38 9.49893 109.826 9.49893 109.167 9.49893L109.141 9.55132C109.826 9.78887 110.485 10.3948 111.039 11.4228Z" fill="#644D3C"/>
<path fill-rule="evenodd" clip-rule="evenodd" d="M9.01814 23.018V17.0137L8.84777 16.8131V23.018C8.74233 23.993 8.27656 25.3373 7.59155 25.8377L7.61791 25.8908H10.095L10.1213 25.8377C9.85808 25.6005 9.17597 24.7313 9.01814 23.018Z" fill="#644D3C"/>
<path fill-rule="evenodd" clip-rule="evenodd" d="M20.1619 9.55127L20.1355 9.60431C20.979 10.1575 21.3284 11.2909 21.3547 11.8178V17.1763L21.5251 17.3772V11.8178C21.5515 11.2115 22.0594 9.97269 22.6129 9.60431L22.5865 9.55127H20.1619Z" fill="#644D3C"/>
<path fill-rule="evenodd" clip-rule="evenodd" d="M26.2821 23.018V17.0137L26.1117 16.8131V23.018C26.0062 23.993 25.5405 25.3373 24.8555 25.8377L24.8818 25.8908H27.3589L27.3853 25.8377C27.122 25.6005 26.4399 24.7313 26.2821 23.018Z" fill="#644D3C"/>
<path fill-rule="evenodd" clip-rule="evenodd" d="M37.426 9.55127L37.3997 9.60431C38.2431 10.1575 38.5925 11.2909 38.6189 11.8178V17.1763L38.7893 17.3772V11.8178C38.8156 11.2115 39.3235 9.97269 39.8771 9.60431L39.8507 9.55127H37.426Z" fill="#644D3C"/>
<path fill-rule="evenodd" clip-rule="evenodd" d="M55.818 17.7209C55.818 14.2426 54.8427 11.4228 52.392 9.68346L52.4184 9.6571C55.8971 10.7375 58.1372 14.1635 58.1372 17.7209C58.1372 21.5159 55.7389 24.6523 52.366 25.8114L52.3396 25.7851C54.9481 23.9403 55.818 20.6464 55.818 17.7209Z" fill="#644D3C"/>
</g>
<defs>
<clipPath id="clip0_2460_29415">
<rect width="110.578" height="27.6445" fill="white" transform="translate(0.710938 9.17773)"/>
</clipPath>
</defs>
</svg>
