<svg width="76" height="40" viewBox="0 0 76 40" fill="none" xmlns="http://www.w3.org/2000/svg">
<path d="M45.5691 22.5965C45.5601 23.1436 45.6062 23.6902 45.7067 24.228C45.8854 25.1471 46.241 25.9698 46.9334 26.6284C47.7854 27.4372 49.1484 27.5668 50.1353 26.9374C50.8278 26.4902 51.2597 25.8469 51.5196 25.0933C52.0007 23.7289 52.0007 22.3234 51.7402 20.9178C51.5674 19.9854 51.1713 19.1634 50.4436 18.5247C49.6282 17.805 48.2911 17.6947 47.3727 18.2709C46.5646 18.7786 46.118 19.5455 45.8442 20.4307C45.6322 21.1365 45.5631 21.8622 45.5691 22.5965ZM45.6728 30.1041V30.3101V37.1796C45.6728 37.4468 45.6728 37.4468 45.3996 37.4534H39.5927C39.3249 37.4534 39.3249 37.4534 39.3249 37.1863V13.1425C39.3249 12.868 39.3249 12.868 39.5993 12.868H45.4063C45.6728 12.868 45.6801 12.868 45.6801 13.1425V15.0763C45.6801 15.1375 45.6595 15.1993 45.7073 15.2684C45.817 15.1853 45.8861 15.0624 45.9678 14.96C46.5367 14.2536 47.182 13.6296 47.9834 13.177C48.6899 12.7723 49.4581 12.5596 50.2682 12.4985C51.3089 12.4154 52.331 12.5397 53.3106 12.9371C54.552 13.4375 55.5395 14.2676 56.3077 15.3641C57.1717 16.5975 57.6508 17.9898 57.9193 19.4638C58.1519 20.7457 58.1851 22.0416 58.1519 23.3375C58.1114 24.7975 57.9193 26.237 57.4395 27.6299C56.9942 28.9185 56.3283 30.0828 55.3209 31.0225C54.237 32.0306 52.9623 32.6068 51.4824 32.7297C50.5633 32.8121 49.6708 32.7297 48.7942 32.4347C47.9848 32.1602 47.2857 31.7076 46.663 31.1248C46.3194 30.8025 46.0104 30.4603 45.7219 30.0828C45.7007 30.0967 45.6867 30.0967 45.6728 30.1041ZM31.4737 29.8768L31.2345 30.1931C30.5214 31.1188 29.6781 31.8784 28.5876 32.3317C27.7037 32.7018 26.7713 32.8121 25.8183 32.7364C25.0913 32.6819 24.3862 32.5297 23.721 32.2147C22.4251 31.5973 21.5678 30.5766 21.0807 29.2468C20.765 28.3888 20.6002 27.4976 20.6002 26.5792V13.1278C20.6002 12.8673 20.6002 12.8673 20.8541 12.8673H26.6956C26.9494 12.8673 26.9494 12.8673 26.9494 13.1278V24.4194C26.9494 25.1258 27.0797 25.797 27.5249 26.3732C27.8619 26.8045 28.3071 27.0384 28.8547 27.1002C29.3631 27.1547 29.8496 27.0929 30.2955 26.8457C30.8158 26.5653 31.1315 26.112 31.3103 25.5638C31.4361 25.1601 31.4982 24.7392 31.4943 24.3164V13.1624C31.4943 12.874 31.4943 12.874 31.7887 12.874H37.5824C37.8495 12.874 37.8495 12.874 37.8495 13.1345V32.5031C37.8495 32.7636 37.8495 32.7636 37.5824 32.7636H31.7755C31.5017 32.7636 31.5017 32.7636 31.5017 32.4965V30.0821C31.5017 30.0143 31.5156 29.9519 31.4737 29.8768ZM66.0429 24.454L66.522 22.9049L68.422 16.7477L69.5451 13.0933C69.601 12.9225 69.6827 12.8673 69.8621 12.8673L75.051 12.8746C75.2982 12.8746 75.3049 12.8813 75.2298 13.1145L72.4599 21.6023L69.6149 30.3705C69.2866 31.392 68.8885 32.3788 68.2718 33.264C66.647 35.5933 64.432 36.9862 61.6216 37.3976C59.5581 37.6993 57.6103 37.3285 55.7655 36.3616C55.6146 36.2865 55.6206 36.2187 55.6904 36.0884L57.8362 32.2612C57.9186 32.1183 58.0077 31.9741 58.0755 31.8312C58.13 31.7136 58.1918 31.7003 58.3021 31.7621C58.8371 32.0373 59.3926 32.228 59.9887 32.2978C60.9836 32.4068 61.894 32.1735 62.732 31.6458C62.8676 31.5568 62.8198 31.4544 62.7859 31.3521L61.49 27.396L58.1034 16.9889L56.848 13.1285C56.7729 12.9025 56.7862 12.8959 57.0128 12.8886H62.2582C62.4157 12.8886 62.4769 12.9504 62.5187 13.088L65.8581 23.8924C65.9193 24.0492 65.9738 24.2273 66.0429 24.454ZM14.6976 32.3582C15.2591 31.8306 15.5196 31.166 15.6233 30.4317C15.719 29.7598 15.6778 29.0886 15.5475 28.424C15.1707 26.5859 14.3141 25.0022 13.0661 23.6106C12.3596 22.8291 11.4964 22.2802 10.5979 21.7665L5.33256 18.7221C4.57762 18.2835 4.18088 17.5983 4.10512 16.7344C4.08385 16.4799 4.1317 16.234 4.32442 16.0353C4.39267 15.965 4.47715 15.9125 4.57044 15.8825C4.66372 15.8525 4.76295 15.8458 4.8594 15.8632C5.05677 15.8897 5.22889 15.9795 5.3937 16.0818L8.29983 17.7612C9.19167 18.2622 10.1579 18.5367 11.1601 18.653C11.5774 18.7015 11.9543 18.8105 12.3105 19.0291L14.3879 20.2293C15.4173 20.8115 16.246 21.6076 16.9464 22.554C17.8576 23.7814 18.4955 25.1384 18.7766 26.647C18.9208 27.4292 18.9554 28.2101 18.7633 28.9916C18.5706 29.7665 18.1593 30.3832 17.4395 30.7806L14.7999 32.3097C14.766 32.331 14.7315 32.345 14.6976 32.3582ZM2.3766 11.8937L3.89911 11.0092L5.17373 10.2689C5.85956 9.83692 6.57928 9.78841 7.34751 9.98844C7.97154 10.1526 8.50584 10.4882 9.05411 10.8039L11.3375 12.1204C12.133 12.559 12.9564 12.559 13.7585 12.1204L15.5203 11.0983C15.6167 11.0438 15.6984 11.0232 15.8021 11.085L18.7501 12.7922C18.8398 12.8401 18.9009 12.8879 18.764 12.9637L16.5623 14.2177C15.5887 14.7108 14.5394 14.9514 13.4495 15.0404C12.2493 15.1361 11.0631 15.0537 9.90475 14.7387C9.12987 14.5261 8.42344 14.1832 7.73097 13.7784L5.22291 12.3324C4.61284 11.9821 3.96091 11.7436 3.24119 11.7495C2.96008 11.7495 2.67166 11.8186 2.3766 11.8937ZM7.19666 23.9396L7.96423 23.9675C8.01939 23.9741 8.07454 23.9881 8.12904 24.0153L11.2897 25.8462C12.0094 26.2715 12.3802 26.9288 12.4899 27.7449C12.4959 27.7902 12.4984 27.836 12.4972 27.8818C12.4899 28.5815 11.9695 28.8959 11.3515 28.5463L8.75373 27.0524C8.23271 26.7434 7.68378 26.5387 7.0664 26.5865C6.72349 26.6138 6.38789 26.6889 6.08618 26.861L4.2892 27.8957C4.23558 27.9207 4.19105 27.9618 4.16177 28.0132C4.13249 28.0647 4.11989 28.1239 4.12572 28.1828V31.4392C4.12572 31.701 4.11841 31.701 3.90575 31.578L0.99896 29.898C0.896618 29.8562 0.862061 29.7884 0.862061 29.6854L0.889308 26.2569C0.889308 26.1752 0.909909 26.1127 0.985669 26.0728C1.94596 25.5518 2.83647 24.8992 3.87252 24.5084C4.6886 24.2008 5.53858 24.0366 6.40915 23.9675L7.19666 23.9396Z" fill="#644D3C"/>
</svg>
