<svg width="134" height="40" viewBox="0 0 134 40" fill="none" xmlns="http://www.w3.org/2000/svg">
<g clip-path="url(#clip0_2460_29453)">
<mask id="mask0_2460_29453" style="mask-type:luminance" maskUnits="userSpaceOnUse" x="1" y="4" width="132" height="32">
<path d="M132.33 4.0683H1.06079V35.9316H132.33V4.0683Z" fill="white"/>
</mask>
<g mask="url(#mask0_2460_29453)">
<path d="M53.2249 17.3705V31.8407H51.8664V28.4312C51.294 29.5588 50.4889 30.4269 49.4547 31.0374C48.4187 31.648 47.2454 31.9514 45.9345 31.9514C44.6237 31.9514 43.3664 31.6365 42.275 31.0088C41.1836 30.3811 40.3289 29.5111 39.7107 28.4025C39.0906 27.294 38.7815 26.0271 38.7815 24.6038C38.7815 23.1804 39.0906 21.9096 39.7107 20.7916C40.3289 19.6736 41.1836 18.8054 42.275 18.1853C43.3645 17.5671 44.5856 17.2561 45.9345 17.2561C47.2835 17.2561 48.3882 17.5614 49.4128 18.17C50.4393 18.7806 51.2463 19.6297 51.8378 20.721V17.3667H53.223L53.2249 17.3705ZM48.9969 29.9289C49.8745 29.4119 50.5671 28.6906 51.0766 27.7672C51.5841 26.8437 51.8398 25.7905 51.8398 24.6076C51.8398 23.4246 51.5859 22.3714 51.0766 21.4479C50.5671 20.5245 49.8745 19.8032 48.9969 19.2862C48.1192 18.7692 47.1251 18.5097 46.0166 18.5097C44.908 18.5097 43.914 18.7692 43.0363 19.2862C42.1586 19.8032 41.4661 20.5245 40.9566 21.4479C40.4471 22.3714 40.1934 23.4265 40.1934 24.6076C40.1934 25.7886 40.4471 26.8437 40.9566 27.7672C41.4641 28.6906 42.1586 29.4119 43.0363 29.9289C43.914 30.446 44.908 30.7055 46.0166 30.7055C47.1251 30.7055 48.1192 30.446 48.9969 29.9289Z" fill="#644D3C"/>
<path d="M58.9624 13.5319C58.741 13.3201 58.6304 13.0567 58.6304 12.7419C58.6304 12.4271 58.741 12.16 58.9624 11.9387C59.1836 11.7174 59.4527 11.6067 59.7656 11.6067C60.0785 11.6067 60.3475 11.7135 60.5689 11.9253C60.7902 12.139 60.9008 12.4023 60.9008 12.7152C60.9008 13.0282 60.7902 13.2971 60.5689 13.5185C60.3475 13.7398 60.0785 13.8505 59.7656 13.8505C59.4527 13.8505 59.1836 13.7437 58.9624 13.5319ZM59.073 17.3707H60.4582V31.8409H59.073V17.3707Z" fill="#644D3C"/>
<path d="M69.7177 18.1055C70.6602 17.5426 71.8069 17.2602 73.1559 17.2602V18.6187L72.8239 18.5901C71.2154 18.5901 69.958 19.0938 69.0537 20.1012C68.1474 21.1087 67.6952 22.509 67.6952 24.3007V31.841H66.3081V17.3709H67.6399V20.5305C68.0825 19.4773 68.7771 18.6683 69.7196 18.1055H69.7177Z" fill="#644D3C"/>
<path d="M94.1166 10.4333V32.6918H91.3578V30.1714C90.7169 31.051 89.908 31.7206 88.929 32.1805C87.9483 32.6403 86.8684 32.8712 85.6892 32.8712C84.1495 32.8712 82.77 32.5315 81.5489 31.8504C80.3297 31.1712 79.3738 30.2153 78.685 28.9865C77.9962 27.7578 77.6509 26.3421 77.6509 24.7412C77.6509 23.1405 77.9962 21.7324 78.685 20.5113C79.3757 19.2921 80.3297 18.3419 81.5489 17.6608C82.7681 16.9815 84.1475 16.64 85.6892 16.64C86.8283 16.64 87.8796 16.8556 88.8393 17.2849C89.7991 17.7161 90.5983 18.3496 91.2392 19.1891V10.4295H94.1184L94.1166 10.4333ZM88.6581 29.6467C89.4784 29.1773 90.1177 28.5171 90.5771 27.6662C91.0374 26.8171 91.2684 25.8422 91.2684 24.7412C91.2684 23.6404 91.0374 22.6673 90.5771 21.8164C90.1177 20.9673 89.4766 20.3109 88.6581 19.8511C87.8376 19.3913 86.9275 19.1604 85.9277 19.1604C84.9279 19.1604 83.993 19.3913 83.1822 19.8511C82.3712 20.3109 81.732 20.9654 81.2627 21.8164C80.7933 22.6673 80.5567 23.6423 80.5567 24.7412C80.5567 25.8403 80.7915 26.8171 81.2627 27.6662C81.732 28.5171 82.3732 29.1773 83.1822 29.6467C83.993 30.116 84.9069 30.3508 85.9277 30.3508C86.9485 30.3508 87.8376 30.116 88.6581 29.6467Z" fill="#644D3C"/>
<path d="M108.967 32.6918L104.376 26.6015L99.7264 32.6918H96.5171L102.787 24.5619L96.8171 16.7926H100.026L104.405 22.5223L108.755 16.7926H111.905L105.906 24.5619L112.235 32.6918H108.965H108.967Z" fill="#644D3C"/>
<path d="M127.203 17.6625C128.422 18.3418 129.378 19.2919 130.067 20.5131C130.758 21.7323 131.101 23.1422 131.101 24.743C131.101 26.3438 130.756 27.7576 130.067 28.9883C129.378 30.219 128.422 31.1729 127.203 31.8521C125.983 32.5314 124.603 32.8729 123.063 32.8729C121.882 32.8729 120.802 32.6439 119.823 32.1823C118.842 31.7224 118.034 31.0527 117.394 30.1731V32.6936H114.635V10.4332H117.514V19.1927C118.154 18.3532 118.955 17.7179 119.914 17.2886C120.875 16.8592 121.923 16.6436 123.064 16.6436C124.604 16.6436 125.983 16.9832 127.205 17.6644L127.203 17.6625ZM125.57 29.6465C126.381 29.1771 127.02 28.517 127.489 27.666C127.959 26.817 128.195 25.842 128.195 24.7411C128.195 23.6402 127.961 22.6671 127.489 21.8162C127.02 20.9671 126.379 20.3108 125.57 19.8509C124.759 19.3911 123.845 19.1603 122.825 19.1603C121.803 19.1603 120.914 19.3911 120.094 19.8509C119.274 20.3108 118.634 20.9653 118.174 21.8162C117.715 22.6671 117.484 23.6421 117.484 24.7411C117.484 25.8401 117.713 26.817 118.174 27.666C118.634 28.517 119.274 29.1771 120.094 29.6465C120.914 30.1159 121.824 30.3506 122.825 30.3506C123.824 30.3506 124.759 30.1159 125.57 29.6465Z" fill="#644D3C"/>
<path d="M17.3149 34.2618C16.8818 34.7026 16.5173 35.0555 16.1758 35.4276C15.8572 35.7749 15.4756 35.916 15.0062 35.9142C11.9611 35.9027 8.91405 35.9142 5.86892 35.897C3.23018 35.8817 1.04745 33.5864 1.06462 31.0736C1.09515 26.8741 1.09896 22.6746 1.0608 18.4771C1.04554 16.737 1.71333 15.3957 3.02602 14.2987C6.51 11.389 9.98439 8.46402 13.4532 5.53527C14.222 4.88656 15.0387 4.33134 16.0461 4.16343C17.8759 3.85625 19.4709 4.28364 20.9153 5.52573C24.3935 8.51363 27.9309 11.4328 31.4454 14.3788C32.6588 15.3976 33.2809 16.7142 33.2885 18.2825C33.3114 22.4935 33.319 26.7044 33.2885 30.9133C33.2713 33.3803 31.6667 35.2292 29.4649 35.7691C29.1215 35.8531 28.7589 35.8913 28.4041 35.8932C25.4734 35.9027 22.5428 35.8951 19.6121 35.9008C19.1332 35.9008 18.7306 35.7463 18.4006 35.4067C18.0494 35.0441 17.706 34.674 17.3149 34.2599V34.2618ZM18.4425 33.1304C18.828 33.512 19.1542 33.8535 19.5052 34.1665C19.593 34.2446 19.7571 34.2657 19.8869 34.2676C20.5909 34.2771 21.295 34.2733 21.999 34.2714C24.1683 34.2676 26.3377 34.3 28.5052 34.2466C30.272 34.2027 31.6248 32.7317 31.6248 30.963C31.6248 26.7176 31.6248 22.4724 31.6248 18.2291C31.6248 17.2064 31.2222 16.3745 30.4647 15.7086C30.0239 15.3213 29.5679 14.9493 29.1177 14.5714C26.0019 11.9556 22.8633 9.3665 19.7781 6.71441C18.3109 5.45132 16.565 5.42652 15.3668 6.16872C14.6876 6.59039 14.0961 7.15706 13.4779 7.67602C11.5509 9.28827 9.63146 10.9101 7.70821 12.5261C6.47184 13.564 5.23928 14.6039 3.99527 15.6323C3.068 16.3993 2.65588 17.3705 2.6616 18.5706C2.67877 22.5965 2.66732 26.6223 2.67113 30.6482C2.67113 30.9229 2.69213 31.1996 2.73028 31.4723C2.93063 32.9644 4.25858 34.2275 5.7697 34.2466C8.78049 34.2867 11.7913 34.2676 14.8021 34.2676C14.8974 34.2676 15.0196 34.239 15.0845 34.1779C15.4355 33.8478 15.7713 33.5043 16.1262 33.1514C16.0212 33.0369 15.9469 32.9511 15.8667 32.8709C14.9529 31.957 14.0351 31.0488 13.1269 30.1311C11.6272 28.6142 10.0664 27.1527 8.65266 25.5595C6.7752 23.4416 6.41842 20.4824 8.12987 18.0306C9.27084 16.3974 10.864 15.5255 12.8598 15.4358C14.4262 15.3652 15.8 15.9109 17.0268 16.8496C17.2443 17.0156 17.3626 17.0099 17.5801 16.8496C19.0168 15.7792 20.6119 15.3385 22.3977 15.6972C23.7353 15.9662 24.8457 16.6283 25.7539 17.63C27.0055 19.0133 27.5607 20.635 27.3241 22.4991C27.1276 24.0446 26.3263 25.2752 25.2502 26.3532C23.6856 27.9197 22.1173 29.4843 20.5489 31.0488C19.864 31.7319 19.1732 32.4092 18.4425 33.1285V33.1304ZM17.2386 19.3509C17.0364 19.1239 16.8513 18.8873 16.6395 18.6813C15.9049 17.96 15.0673 17.4182 14.0485 17.172C11.402 16.5291 8.70799 18.6202 8.69273 21.3467C8.68509 22.7415 9.25558 23.9072 10.2077 24.8746C12.4877 27.1909 14.8002 29.4766 17.0935 31.7796C17.2634 31.9493 17.3702 31.9169 17.5152 31.7643C17.8167 31.4476 18.1315 31.1423 18.4425 30.8332C20.3677 28.9099 22.2966 26.9905 24.216 25.0615C25.0517 24.222 25.6566 23.2432 25.7234 22.0374C25.8302 20.1199 24.9507 18.6927 23.3212 17.7693C21.6785 16.8382 20.0605 17.0556 18.5646 18.1662C18.1163 18.4981 17.727 18.9121 17.2367 19.3547L17.2386 19.3509Z" fill="#644D3C"/>
</g>
</g>
<defs>
<clipPath id="clip0_2460_29453">
<rect width="131.879" height="32.7484" fill="white" transform="translate(1.06079 3.62579)"/>
</clipPath>
</defs>
</svg>
