<svg width="80" height="40" viewBox="0 0 80 40" fill="none" xmlns="http://www.w3.org/2000/svg">
<path d="M69.549 5.50042L68.1525 5.83293V8.47083V11.1087H66.1574H64.1624V12.7713V14.4338H66.1352H68.1081L68.1968 22.6801C68.2633 30.4608 68.3076 31.0149 68.7288 31.946C69.815 34.3179 71.9874 35.1381 75.8667 34.6947L77.0194 34.5395V32.8548V31.1701H75.3568C72.5194 31.1701 72.4529 30.9928 72.2312 21.217L72.0761 14.4338H74.5366H77.0194V12.7713V11.1309L74.6475 11.0644L72.2534 10.9979L72.1426 8.11616L72.0317 5.23441L71.4776 5.19008C71.1672 5.19008 70.3027 5.32308 69.549 5.50042Z" fill="#644D3C"/>
<path d="M17.1456 12.6161C5.0866 28.4879 2.98071 31.3918 2.98071 32.2341C2.98071 32.7662 3.64573 33.4755 4.93143 34.3622C5.52995 34.7834 5.70729 34.8277 5.99546 34.5839C6.32797 34.3179 17.3673 19.754 20.781 15.0988C21.7121 13.8131 22.4879 12.5939 22.4879 12.3944C22.4879 11.8624 21.3796 10.6432 20.3377 10.0669L19.451 9.57919L17.1456 12.6161Z" fill="#644D3C"/>
<path d="M5.39695 10.222C4.17775 10.8649 3.24672 12.0397 3.09155 13.1481C3.02505 13.6801 2.98071 15.1875 3.02505 16.5397L3.09155 18.9559L6.74915 14.6998C8.76637 12.3501 10.4733 10.2885 10.5841 10.1112C10.8723 9.55701 6.43881 9.66784 5.39695 10.222Z" fill="#644D3C"/>
<path d="M30.8671 10.6654C29.2932 11.3082 28.2514 12.0398 27.0765 13.3033C24.9484 15.5644 24.1504 18.4018 24.3278 22.9682C24.3943 24.7416 24.5938 26.3155 24.8154 27.0692C26.5223 32.6332 30.6898 35.0494 37.3843 34.3844C39.468 34.1627 44.0788 33.1873 44.5886 32.8548C44.8547 32.6775 45.1207 29.9066 44.9212 29.5741C44.7881 29.3746 44.3005 29.4411 43.0148 29.8401C34.2587 32.5445 29.4927 30.5716 28.5839 23.8993L28.4509 22.8574H36.7636H45.0985V21.7934C45.0985 21.217 44.9877 19.6875 44.8768 18.3574C44.4778 14.2122 43.4359 12.4166 40.7094 11.0644C39.2463 10.3329 39.2242 10.3329 35.5666 10.2886C32.3745 10.2442 31.776 10.2886 30.8671 10.6654ZM37.6946 13.791C38.404 14.0348 39.7562 15.2984 40.133 16.0299C40.3104 16.3846 40.532 17.3156 40.6429 18.0914L40.798 19.5323H34.7464C27.808 19.5323 28.3179 19.7318 29.1381 17.3821C29.8252 15.4314 31.3769 14.0792 33.505 13.5693C34.3917 13.3476 36.8966 13.4806 37.6946 13.791Z" fill="#644D3C"/>
<path d="M50.5517 10.7541C48.1798 11.7516 47.3374 13.0595 47.1601 16.0742C47.0492 17.7368 47.0936 17.9584 47.6921 19.089C48.4901 20.5964 49.9088 21.7047 52.1699 22.5914C53.1009 22.9461 54.6083 23.5224 55.5171 23.8771C56.6033 24.2983 57.5122 24.8303 58.1107 25.4288C58.9752 26.249 59.0639 26.4263 59.0639 27.446C59.0639 28.8204 58.421 29.8844 57.1797 30.5051C56.4481 30.8598 55.8718 30.9485 53.9654 30.9485C51.793 30.9263 51.5048 30.882 49.6428 30.1061C48.5566 29.6628 47.5812 29.2859 47.4926 29.2859C47.4039 29.2859 47.3152 30.0618 47.3152 31.015V32.7662L49.4876 33.5199C51.5492 34.2292 51.7709 34.2736 54.7413 34.2736C57.6895 34.2736 57.9112 34.2514 59.2412 33.6307C61.0146 32.8105 62.4776 31.2366 62.9432 29.6628C63.9629 26.2047 62.655 23.0569 59.4851 21.4165C58.9087 21.1284 57.1575 20.3747 55.5615 19.754C52.2364 18.4683 51.6378 18.0471 51.2832 16.8944C50.9063 15.653 51.4605 14.6112 52.8127 13.9462C53.6994 13.5028 54.1649 13.4363 55.9605 13.4807C57.2683 13.5028 58.7314 13.6802 59.8176 13.9683C60.7929 14.2343 61.6131 14.4338 61.6575 14.4338C61.6796 14.4338 61.724 13.658 61.724 12.6826V10.9314L60.7929 10.6654C60.2609 10.5102 58.0442 10.3551 55.8496 10.3107C51.9925 10.1999 51.8152 10.2221 50.5517 10.7541Z" fill="#644D3C"/>
<path d="M18.3205 30.1283L14.5077 34.6061L15.7712 34.6504C17.6776 34.6947 18.9633 34.6061 19.7613 34.3622C20.5594 34.1184 21.9781 32.6553 22.1554 31.9017C22.2219 31.6135 22.2441 30.1061 22.2219 28.5101L22.1554 25.6505L18.3205 30.1283Z" fill="#644D3C"/>
</svg>
