<svg width="129" height="40" viewBox="0 0 129 40" fill="none" xmlns="http://www.w3.org/2000/svg">
<path d="M119.991 2.5296C116.531 4.73621 118.136 10.2778 122.223 10.2778C123.401 10.2778 124.981 9.4002 125.683 8.37212C126.135 7.69509 126.285 7.14343 126.285 6.1655C126.285 3.63291 124.655 2.00302 122.173 2.00302C121.22 2.00302 120.543 2.17854 119.991 2.5296ZM123.828 2.90573C125.132 3.5326 125.759 4.76129 125.633 6.41625C125.533 7.46941 125.357 7.94584 124.806 8.52257C122.348 11.0802 118.336 9.1996 118.712 5.664C119.013 3.1314 121.471 1.80242 123.828 2.90573Z" fill="#644D3C"/>
<path d="M120.919 6.14034C120.919 7.3941 121.019 8.27173 121.17 8.27173C121.32 8.27173 121.421 7.92068 121.421 7.51947C121.421 6.54154 121.872 6.56662 122.725 7.56962C123.076 8.02098 123.477 8.32188 123.577 8.1965C123.677 8.0962 123.577 7.82038 123.351 7.56962C122.825 6.99289 122.8 6.61677 123.301 6.41616C123.527 6.34094 123.677 5.96481 123.677 5.41316C123.677 4.38507 123.176 4.00895 121.822 4.00895H120.919V6.14034ZM122.95 4.91165C123.402 5.43823 122.95 6.11526 122.073 6.21556C121.471 6.29079 121.421 6.21556 121.421 5.41316C121.421 4.63583 121.496 4.51045 122.022 4.51045C122.348 4.51045 122.75 4.68598 122.95 4.91165Z" fill="#644D3C"/>
<path d="M2.56421 22.0882V33.8986L8.65748 33.7983C14.4248 33.7231 14.8009 33.698 16.0547 33.1213C17.6093 32.4192 19.164 30.7893 19.5652 29.3851C20.4679 26.4011 19.49 23.2918 17.2081 21.9378L15.9544 21.1855L16.7066 20.684C19.4398 18.8786 19.3395 13.7883 16.5311 11.7572C14.7758 10.4784 13.5722 10.2778 7.77985 10.2778H2.56421V22.0882ZM13.0206 14.9167C13.6976 15.3931 14.174 16.8475 13.9734 17.8003C13.6725 19.2046 12.845 19.5556 9.93632 19.5556H7.3285V17.0481V14.5406H9.91124C11.7919 14.5406 12.6194 14.6409 13.0206 14.9167ZM13.4468 23.9187C14.6003 24.3951 15.1018 25.2226 15.1018 26.5767C15.1018 28.9087 13.9734 29.5857 10.0868 29.5857H7.3285V26.5767V23.5676H9.96139C11.6665 23.5676 12.9203 23.693 13.4468 23.9187Z" fill="#644D3C"/>
<path d="M58.858 10.679C58.0305 10.8796 57.1027 11.0802 56.8018 11.1554L56.2251 11.2808V22.5897V33.8735L58.4317 33.7983L60.6133 33.7231V30.3881C60.6133 28.5827 60.6634 27.0782 60.7386 27.1032C60.8139 27.1032 62.0676 28.6077 63.522 30.4132L66.1549 33.7231L68.863 33.7983C70.518 33.8485 71.546 33.7732 71.4708 33.6228C71.4457 33.4974 69.9412 31.6669 68.1358 29.5606C66.3555 27.4543 64.7256 25.5235 64.5501 25.2727C64.2492 24.8715 64.5501 24.4453 67.2833 21.3861L70.3424 17.9257L67.6343 17.8505C64.4999 17.7753 64.7757 17.6248 62.3434 20.684C61.541 21.7121 60.8139 22.5395 60.7386 22.5646C60.6634 22.5646 60.6383 19.9067 60.6885 16.6218C60.7136 13.362 60.6634 10.6288 60.5631 10.5285C60.4628 10.4282 59.6855 10.5035 58.858 10.679Z" fill="#644D3C"/>
<path d="M77.1633 10.4032C77.0379 10.4534 76.0349 10.679 74.9817 10.9047L73.0259 11.331V22.5897V33.8485H79.7962H86.5665V31.7171V29.5857H82.1783H77.7902V19.9318C77.7902 14.6158 77.7149 10.2778 77.6146 10.3029C77.4893 10.3029 77.3137 10.3531 77.1633 10.4032Z" fill="#644D3C"/>
<path d="M90.5781 10.679C87.5941 11.3059 87.8198 11.1554 87.8198 12.4092C87.8198 13.0361 87.895 13.5376 88.0204 13.5376C88.1207 13.5376 89.1237 13.7632 90.2772 14.014L92.3333 14.4904V12.3841C92.3333 11.2306 92.3083 10.2778 92.2832 10.3029C92.233 10.3279 91.4808 10.4784 90.5781 10.679Z" fill="#644D3C"/>
<path d="M98.6022 10.8796L96.4708 11.4062L96.3956 14.5907L96.3204 17.8003H94.9663H93.5872V19.5556V21.3109H94.9663H96.3454L96.3956 27.5044L96.4708 33.7231L98.6774 33.7983L100.859 33.8735V27.5797V21.3109H102.614H104.369V19.5556V17.8003H102.614H100.884L100.809 14.0641L100.734 10.3279L98.6022 10.8796Z" fill="#644D3C"/>
<path d="M26.06 17.9007C22.8504 19.0541 21.0449 21.8124 21.0199 25.699C20.9948 29.3851 22.399 31.9428 25.1573 33.3219C27.9406 34.701 31.3508 34.2748 33.1813 32.3189L33.9085 31.5416V32.695V33.8736L36.1151 33.7983L38.2967 33.7231V25.8244V17.9257L36.1151 17.8505L33.9085 17.7753V18.8284V19.9067L33.2315 19.2296C31.5765 17.675 28.392 17.0732 26.06 17.9007ZM31.7771 22.3139C34.5855 24.0441 34.1342 28.5325 31.0249 29.7111C29.0941 30.4633 27.4391 29.8866 26.2104 28.0812C25.5334 27.0782 25.4331 24.9468 26.0098 23.8184C26.411 23.016 27.7149 21.9378 28.5173 21.7372C29.4201 21.4864 30.8744 21.7622 31.7771 22.3139Z" fill="#644D3C"/>
<path d="M44.8661 18.1514C41.3556 19.6057 39.7006 22.0129 39.6755 25.6238C39.6755 29.0842 41.0797 31.5415 43.9885 33.1213C45.493 33.9487 45.6685 33.9738 48.2011 33.9738C50.6334 33.9738 50.9343 33.9237 52.1379 33.2466C53.3415 32.5947 55.1971 30.9397 54.9463 30.7642C54.8962 30.714 54.1439 30.1875 53.3164 29.6107L51.7869 28.5576L50.834 29.1845C49.2292 30.2878 47.6494 30.3379 45.9945 29.3349C44.7658 28.5826 44.1891 27.4543 44.1891 25.7993C44.1891 24.044 44.8661 22.9157 46.4458 22.1132C47.8501 21.3861 49.3546 21.5114 50.7838 22.4643L51.7618 23.1163L53.3666 22.0129C54.2442 21.4362 54.9714 20.8595 54.9714 20.7592C54.9714 20.3329 52.514 18.5024 51.3104 18.0511C49.3796 17.349 46.7718 17.374 44.8661 18.1514Z" fill="#644D3C"/>
<path d="M110.011 17.8755C107.855 18.6027 106.175 19.9819 105.172 21.9126C104.57 23.0661 104.495 23.4422 104.495 25.8244C104.495 28.2065 104.57 28.5826 105.172 29.711C105.974 31.2155 107.353 32.5696 108.883 33.372C109.861 33.8986 110.362 33.9738 112.77 33.9738C115.302 33.9738 115.628 33.9237 116.957 33.2466C117.735 32.8454 118.687 32.2186 119.064 31.8173L119.741 31.1152L118.662 29.8615C117.634 28.6077 117.108 28.3319 116.782 28.8334C116.681 28.9839 116.205 29.3098 115.703 29.5606C113.096 30.8645 110.388 30.2125 109.234 28.0059L108.858 27.3289H114.926H120.994L120.869 25.2476C120.693 21.9628 119.364 19.8063 116.581 18.377C115.528 17.8505 114.851 17.7 113.146 17.6248C111.842 17.5746 110.613 17.6749 110.011 17.8755ZM114.5 21.6619C115.428 22.0631 116.406 23.1664 116.406 23.8434C116.406 24.2948 116.155 24.3199 112.644 24.3199C109.184 24.3199 108.908 24.2948 109.059 23.8685C109.836 21.7622 112.318 20.7592 114.5 21.6619Z" fill="#644D3C"/>
<path d="M87.9452 18.1263C87.87 18.3018 87.8449 21.8625 87.87 26.0751L87.9452 33.7231L90.1518 33.7983L92.3334 33.8735V25.8244V17.8003H90.202C88.6975 17.8003 88.0205 17.9006 87.9452 18.1263Z" fill="#644D3C"/>
</svg>
