<svg width="112" height="40" viewBox="0 0 112 40" fill="none" xmlns="http://www.w3.org/2000/svg">
<path d="M15.953 18.2669H6.76628V9.70752H0.949951V31.6839H6.76628V22.7942H15.953V31.6839H21.7693V9.70752H15.953V18.2669Z" fill="#644D3C"/>
<path d="M35.8601 22.927C35.8601 26.0966 34.5394 27.6194 32.3239 27.6194C30.3079 27.6194 29.4184 26.4308 29.4184 24.2153V15.1606H23.7295V25.2071C23.7295 29.5357 25.6795 32.2127 30.0088 32.2127C32.9142 32.2127 34.8002 30.826 35.8581 28.6766V31.6839H41.5391V15.1606H35.8601V22.927Z" fill="#644D3C"/>
<path d="M53.8508 21.4397L50.4468 21.1095C48.8937 20.9444 48.4975 20.3171 48.4975 19.6224C48.4975 18.6979 49.2238 18.0032 51.1388 18.0032C52.9568 18.0032 53.8463 18.7633 54.014 20.0503H59.17C58.8398 16.1833 55.6701 14.6302 51.1064 14.6302C46.6782 14.6302 43.3078 16.215 43.3078 20.1494C43.3078 23.0245 45.0247 24.7427 48.2314 25.1059L51.7312 25.5021C53.6462 25.7332 53.9453 26.4266 53.9453 27.2534C53.9453 28.2122 53.2189 28.8065 51.3699 28.8065C49.2568 28.8065 48.1342 27.7163 48.0022 26.3632H42.8462C42.9783 29.4008 45.2234 32.2125 51.2735 32.2125C57.42 32.2125 59.3694 29.7343 59.3694 26.5944C59.368 23.4221 57.7502 21.8359 53.8508 21.4397Z" fill="#644D3C"/>
<path d="M72.9938 14.6317C70.1856 14.6317 68.3017 15.6566 67.1777 17.4052V15.16H61.4941V38.2926H67.1777V29.3707C68.3003 31.1536 70.1856 32.2101 72.9938 32.2101C78.4141 32.2101 80.5615 28.046 80.5615 23.4526C80.5651 18.6968 78.4141 14.6317 72.9938 14.6317ZM71.0791 27.7845C68.1735 27.7845 67.1791 26.3634 67.1791 23.4223C67.1791 20.4811 68.1696 19.06 71.0791 19.06C73.8878 19.06 74.8796 20.349 74.8796 23.4223C74.8796 26.4955 73.8863 27.7845 71.0777 27.7845H71.0791Z" fill="#644D3C"/>
<path d="M91.2629 24.7434L90.4039 27.8166L89.4456 24.7434L86.2399 15.1598H80.4565L85.8111 31.2207H89.4135L88.5552 33.7961H81.4484V38.2903H86.207C91.3951 38.2903 93.1137 36.0102 94.4357 31.714L99.6903 15.1578H94.3035L91.2629 24.7434Z" fill="#644D3C"/>
<path d="M100.737 16.0969H102.181V19.6449H103.375V16.0969H104.811V15.1592H100.737V16.0969Z" fill="#644D3C"/>
<path d="M109.054 15.1592L108.137 18.4173L107.226 15.1592H105.182V19.6449H106.369V15.9014L107.456 19.6449H108.785L109.864 15.9285V19.6449H111.05V15.1592H109.054Z" fill="#644D3C"/>
</svg>
