<svg width="121" height="40" viewBox="0 0 121 40" fill="none" xmlns="http://www.w3.org/2000/svg">
<path d="M48.7923 12.9507C48.1999 12.9507 47.7169 13.4338 47.7169 14.0262V18.9414H37.9039V14.0262C37.9039 13.4338 37.4208 12.9507 36.8284 12.9507C36.236 12.9507 35.7529 13.4338 35.7529 14.0262V25.9564C35.7529 26.5488 36.236 27.0319 36.8284 27.0319C37.4208 27.0319 37.9039 26.5488 37.9039 25.9564V21.0749H47.7169V25.9401C47.7169 26.5325 48.1999 27.0156 48.7923 27.0156C49.3848 27.0156 49.8678 26.5325 49.8678 25.9401V14.0122C49.8433 13.4175 49.3708 12.9507 48.7923 12.9507Z" fill="#644D3C"/>
<path d="M91.4208 15.1017H99.7173C100.31 15.1017 100.793 14.6186 100.793 14.0262C100.793 13.4338 100.31 12.9507 99.7173 12.9507H91.4208C88.8334 12.9507 86.7279 15.0563 86.7279 17.6437V22.3226C86.7279 24.91 88.8334 27.0156 91.4208 27.0156H99.7173C100.31 27.0156 100.793 26.5325 100.793 25.9401C100.793 25.3477 100.31 24.8646 99.7173 24.8646H91.4208C90.0102 24.8646 88.8625 23.717 88.8625 22.3063V17.6437C88.8625 16.2423 90.0102 15.1017 91.4208 15.1017Z" fill="#644D3C"/>
<path d="M104.761 15.1017H116.692C117.284 15.1017 117.767 14.6186 117.767 14.0262C117.767 13.4338 117.284 12.9507 116.692 12.9507H104.761C104.169 12.9507 103.686 13.4338 103.686 14.0262C103.686 14.6186 104.169 15.1017 104.761 15.1017Z" fill="#644D3C"/>
<path d="M104.761 21.0923H116.692C117.284 21.0923 117.767 20.6093 117.767 20.0029C117.744 19.4081 117.271 18.9414 116.692 18.9414H104.761C104.169 18.9414 103.686 19.4244 103.686 20.0169C103.686 20.6093 104.169 21.0923 104.761 21.0923Z" fill="#644D3C"/>
<path d="M116.692 24.8821H104.761C104.169 24.8821 103.686 25.3651 103.686 25.9575C103.686 26.55 104.169 27.033 104.761 27.033H116.692C117.284 27.033 117.767 26.55 117.767 25.9575C117.767 25.3651 117.284 24.8821 116.692 24.8821Z" fill="#644D3C"/>
<path d="M82.7587 12.9507C82.1663 12.9507 81.6832 13.4338 81.6832 14.0262V24.413C81.6832 24.7727 81.3899 24.8483 81.348 24.8577C81.0291 24.9391 80.8918 24.7773 80.8138 24.6481L74.4739 14.1926C73.864 13.2033 72.7024 12.7401 71.5839 13.045C70.4584 13.35 69.703 14.3509 69.703 15.5358V25.9564C69.703 26.5488 70.186 27.0319 70.7785 27.0319C71.3709 27.0319 71.8539 26.5488 71.8539 25.9564V15.537C71.8539 15.2332 72.0658 15.1482 72.1565 15.1249C72.3777 15.0691 72.5453 15.1343 72.6559 15.317L78.9934 25.769C79.4648 26.5605 80.2958 27.033 81.2153 27.033C81.4283 27.033 81.6693 27.0004 81.923 26.9364C83.066 26.6128 83.833 25.6061 83.833 24.4305V14.0262C83.833 13.4338 83.35 12.9507 82.7575 12.9507H82.7587Z" fill="#644D3C"/>
<path d="M62.1166 12.9507H57.4377C54.8503 12.9507 52.7448 15.0563 52.7448 17.6437V25.9401C52.7448 26.5325 53.2278 27.0156 53.8202 27.0156C54.4127 27.0156 54.8957 26.5325 54.8957 25.9401V21.0749H64.6749V25.9401C64.6749 26.5325 65.158 27.0156 65.7504 27.0156C66.3428 27.0156 66.8259 26.5325 66.8259 25.9401V17.6437C66.8259 15.0563 64.7133 12.9507 62.1166 12.9507ZM64.6912 17.66V18.9403H54.8945V17.66C54.8945 16.2493 56.0421 15.1017 57.4528 15.1017H62.1318C63.5424 15.1017 64.6901 16.2493 64.6901 17.66H64.6912Z" fill="#644D3C"/>
<path d="M31.8014 12.9507C31.209 12.9507 30.726 13.4338 30.726 14.0262V24.413C30.726 24.7727 30.4327 24.8483 30.3896 24.8577C30.073 24.9391 29.9333 24.7773 29.8565 24.6481L23.5166 14.1938C22.9079 13.2033 21.7463 12.7412 20.6266 13.045C19.5011 13.35 18.7457 14.3509 18.7457 15.5358V25.9564C18.7457 26.5488 19.2288 27.0319 19.8212 27.0319C20.4136 27.0319 20.8967 26.5488 20.8967 25.9564V15.537C20.8967 15.2332 21.1085 15.1482 21.1993 15.1249C21.4193 15.0691 21.588 15.1343 21.6986 15.317L28.0361 25.769C28.5075 26.5605 29.3374 27.033 30.2581 27.033C30.4711 27.033 30.712 27.0004 30.9657 26.9364C32.1087 26.6128 32.8769 25.6061 32.8769 24.4305V14.0262C32.8769 13.4338 32.3939 12.9507 31.8014 12.9507Z" fill="#644D3C"/>
<path d="M14.793 18.9577H2.86282C2.27038 18.9577 1.78735 19.4407 1.78735 20.0332C1.78735 20.6256 2.27038 21.1086 2.86282 21.1086H14.793C15.3854 21.1086 15.8685 20.6256 15.8685 20.0192C15.8452 19.4244 15.3726 18.9577 14.793 18.9577Z" fill="#644D3C"/>
<path d="M14.793 24.8984H2.86282C2.27038 24.8984 1.78735 25.3814 1.78735 25.9738C1.78735 26.5663 2.27038 27.0493 2.86282 27.0493H14.793C15.3854 27.0493 15.8685 26.5663 15.8685 25.9599C15.844 25.3651 15.3715 24.8984 14.793 24.8984Z" fill="#644D3C"/>
<path d="M14.793 12.9681H2.86282C2.26922 12.9681 1.78735 13.45 1.78735 14.0436C1.78735 14.6372 2.27038 15.1191 2.86282 15.1191H14.793C15.3854 15.1191 15.8685 14.636 15.8685 14.0436C15.8685 13.4512 15.3854 12.9681 14.793 12.9681Z" fill="#644D3C"/>
</svg>
