<svg width="80" height="40" viewBox="0 0 80 40" fill="none" xmlns="http://www.w3.org/2000/svg">
<mask id="mask0_2460_29486" style="mask-type:luminance" maskUnits="userSpaceOnUse" x="2" y="3" width="76" height="34">
<path d="M77.5138 3.04382H2.48633V36.9562H77.5138V3.04382Z" fill="white"/>
</mask>
<g mask="url(#mask0_2460_29486)">
<path d="M41.2345 25.0482C41.0328 24.5902 40.932 24.234 40.8312 23.9795C40.7306 23.7251 40.5794 23.4706 40.4281 23.2162C40.2772 22.9617 40.0755 22.8091 39.7733 22.6564C39.5212 22.5037 39.219 22.402 38.8156 22.402C38.4126 22.402 38.1104 22.5037 37.8082 22.6564C37.5561 22.8091 37.3544 22.9617 37.2034 23.2162C37.0522 23.4706 36.9009 23.776 36.75 24.1322C36.5987 24.4884 36.4979 24.8446 36.3466 25.0991L32.8197 34.2081C32.6685 34.5643 32.5676 34.8698 32.5172 35.0733C32.4164 35.2768 32.4164 35.4806 32.4164 35.684C32.4164 35.9892 32.5172 36.2948 32.8197 36.5492C33.0715 36.8034 33.4242 36.9562 33.7771 36.9562C34.1801 36.9562 34.4823 36.8034 34.6336 36.5492C34.8353 36.3455 35.0871 35.8368 35.3392 35.1243L35.994 33.3432L36.75 31.2058L38.7655 25.4044L40.8816 31.2058L41.6376 33.3432L42.2924 35.1243L42.6453 35.8875C42.7462 36.142 42.8467 36.3455 42.998 36.4982C43.0988 36.651 43.1996 36.7527 43.3506 36.8034C43.5523 36.9052 43.7035 36.9562 43.9553 36.9562C44.3079 36.9562 44.6609 36.8034 44.9127 36.5492C45.2152 36.2948 45.3157 35.9892 45.3157 35.633C45.3157 35.3278 45.1648 34.8188 44.9127 34.1574L41.2345 25.0482Z" fill="#644D3C"/>
<path d="M11.3546 25.0482L10.9011 23.9795C10.8003 23.7251 10.6492 23.4706 10.498 23.2162C10.3468 22.9617 10.1453 22.8091 9.84295 22.6564C9.59101 22.5037 9.28868 22.402 8.88557 22.402C8.48249 22.402 8.18016 22.5037 7.92822 22.6564C7.62589 22.8091 7.42434 22.9617 7.27317 23.2162C7.12201 23.4706 6.97084 23.776 6.81967 24.1322C6.66851 24.4884 6.56773 24.8446 6.46696 25.0991L2.88944 34.2081C2.73827 34.5643 2.63749 34.8698 2.58711 35.0733C2.48633 35.2768 2.48633 35.4806 2.48633 35.684C2.48633 35.9892 2.63749 36.2948 2.88944 36.5492C3.14138 36.8034 3.4941 36.9562 3.84679 36.9562C4.24989 36.9562 4.55222 36.8034 4.75378 36.5492C4.90494 36.3455 5.15689 35.8368 5.40883 35.1243L6.06388 33.3432L6.81967 31.2058L8.88557 25.4044L10.9515 31.2058L11.7073 33.3432L12.3623 35.1243L12.7151 35.8875C12.8158 36.142 12.967 36.3455 13.0678 36.4982C13.1686 36.651 13.2693 36.7527 13.4709 36.8034C13.622 36.9052 13.7732 36.9562 14.0251 36.9562C14.3779 36.9562 14.7306 36.8034 14.9825 36.5492C15.2848 36.2948 15.3856 35.9892 15.3856 35.633C15.3856 35.3278 15.2345 34.8188 14.9825 34.1574L11.3546 25.0482Z" fill="#644D3C"/>
<path d="M29.1922 34.7171C28.9905 34.4626 28.6379 34.3608 28.1844 34.3608H22.44V24.1322C22.44 23.5724 22.2891 23.1144 22.0874 22.86C21.7852 22.5546 21.4827 22.402 21.0292 22.402C20.6262 22.402 20.2735 22.5546 20.0215 22.86C19.7697 23.1144 19.6184 23.5724 19.6184 24.1322V34.9716C19.6184 35.5823 19.7697 36.0403 20.0215 36.2948C20.324 36.5492 20.727 36.7017 21.3819 36.7017H28.1844C28.6379 36.7017 28.9905 36.6 29.2423 36.3965C29.444 36.193 29.5953 35.8875 29.5953 35.5313C29.5953 35.2261 29.444 34.9206 29.1922 34.7171Z" fill="#644D3C"/>
<path d="M76.2034 22.402C75.8003 22.402 75.4978 22.5546 75.2965 22.8091C75.0444 23.0635 74.9435 23.4706 74.9435 24.0304V32.4272L69.5016 24.1322C69.3507 23.8777 69.1994 23.6233 69.0482 23.4197C68.9476 23.1653 68.7964 23.0126 68.6451 22.86C68.4942 22.7073 68.3429 22.6055 68.1916 22.5037C67.9903 22.4528 67.7886 22.402 67.5365 22.402C67.1839 22.402 66.8817 22.5037 66.6296 22.6564C66.3274 22.86 66.1257 23.1144 66.0252 23.3688C65.9243 23.6233 65.8739 23.9795 65.8739 24.4884V35.3278C65.8739 35.8368 65.9747 36.2437 66.2265 36.5492C66.4786 36.8034 66.7808 36.9562 67.1839 36.9562C67.5869 36.9562 67.8894 36.8034 68.1412 36.5492C68.3933 36.2437 68.4942 35.8368 68.4942 35.3278V27.0838L73.7848 35.2768L74.2383 35.9385C74.3895 36.142 74.5909 36.3455 74.7422 36.4982C74.9435 36.651 75.0948 36.7527 75.2965 36.8545C75.4978 36.9052 75.7499 36.9562 76.0017 36.9562C77.0095 36.9562 77.5134 36.3455 77.5134 35.1243V24.0304C77.5134 23.5215 77.4125 23.1144 77.1607 22.8091C76.9086 22.5546 76.6064 22.402 76.2034 22.402Z" fill="#644D3C"/>
<path d="M57.4594 25.0482C57.2578 24.5902 57.1572 24.234 57.0564 23.9795C56.9555 23.7251 56.8043 23.4706 56.6533 23.2162C56.5021 22.9617 56.2503 22.8091 55.9982 22.6564C55.7464 22.5037 55.3935 22.402 55.0408 22.402C54.6378 22.402 54.2849 22.5037 54.0331 22.6564C53.7813 22.8091 53.5796 22.9617 53.4284 23.2162C53.227 23.4706 53.1261 23.776 52.9749 24.1322L52.5718 25.0991L49.0446 34.2081C48.8934 34.5643 48.7929 34.8698 48.692 35.0733C48.6416 35.2768 48.6416 35.4806 48.6416 35.684C48.6416 35.9892 48.7424 36.2948 49.0446 36.5492C49.2967 36.8034 49.599 36.9562 49.9516 36.9562C50.405 36.9562 50.7076 36.8034 50.8585 36.5492C51.0602 36.3455 51.2114 35.8368 51.5137 35.1243L52.2192 33.3432L52.9245 31.2058L54.9904 25.4044L57.1068 31.2058L57.8625 33.3432L58.5176 35.1243L58.8702 35.8875C58.9711 36.142 59.0719 36.3455 59.1728 36.4982C59.3237 36.651 59.4246 36.7527 59.5758 36.8034C59.7268 36.9052 59.9284 36.9562 60.1805 36.9562C60.5332 36.9562 60.8858 36.8034 61.1379 36.5492C61.3897 36.2948 61.5409 35.9892 61.5409 35.633C61.5409 35.3278 61.3393 34.8188 61.0875 34.1574L57.4594 25.0482Z" fill="#644D3C"/>
<path d="M27.1761 6.04627C27.9825 6.04627 28.6877 5.33384 28.6877 4.51961C28.6877 3.70539 27.9825 3.04382 27.1761 3.04382C26.37 3.04382 25.7148 3.70539 25.7148 4.51961C25.7148 5.33384 26.37 6.04627 27.1761 6.04627Z" fill="#644D3C"/>
<path d="M38.1105 6.19892C38.1105 5.48646 38.6648 5.18113 39.3703 5.18113C40.9321 5.18113 41.436 6.35159 42.9981 6.35159C44.4593 6.35159 45.1648 5.2829 45.1648 4.26513C45.1648 3.9598 45.1144 3.70534 45.0136 3.45091H44.5601C44.4593 4.21423 43.754 4.26513 43.0485 4.26513C41.8894 4.26513 40.8316 3.19647 39.6725 3.19647C38.2617 3.19647 37.4553 4.16337 37.4553 5.2829C37.4553 5.58826 37.5562 5.89359 37.657 6.19892H38.1105Z" fill="#644D3C"/>
<path d="M49.3972 3.04382C48.4398 3.04382 47.9864 3.55272 47.9864 4.77405V15.0027H43.0483V9.20139C43.0483 8.08183 42.5445 7.47116 41.7384 7.47116C40.932 7.47116 40.4281 7.98006 40.4281 9.20139V15.0027H36.5483C36.0948 15.0027 35.7422 15.1045 35.5405 15.359C35.2887 15.5625 35.1375 15.8678 35.1375 16.1732C35.1375 16.5294 35.2887 16.8347 35.4901 17.0383C35.7422 17.2418 36.0948 17.3436 36.5483 17.3436H47.5833C49.5988 17.3436 50.808 16.6312 50.808 13.985V4.77405C50.808 3.65449 50.3041 3.04382 49.3972 3.04382Z" fill="#644D3C"/>
<path d="M56.8549 3.04382C55.8976 3.04382 55.4441 3.55272 55.4441 4.77405V15.7661C55.4441 16.4276 55.5953 16.8856 55.7967 17.1401C56.0992 17.4454 56.4014 17.5981 56.8549 17.5981C57.258 17.5981 57.6109 17.4454 57.8627 17.1401C58.1148 16.8856 58.2657 16.4276 58.2657 15.8678V4.77405C58.2657 3.65449 57.7618 3.04382 56.8549 3.04382Z" fill="#644D3C"/>
<path d="M31.157 7.52203C30.5019 7.52203 29.8468 7.87826 29.8468 9.20136V12.7127C29.8468 14.7483 28.8894 15.4098 27.126 15.4098C25.6647 15.4098 24.3545 15.1554 24.3545 12.8145V9.20136C24.3545 7.87826 23.6996 7.52203 23.0445 7.52203C22.3893 7.52203 21.7345 7.87826 21.7345 9.20136V12.8145C21.7345 15.4607 23.2966 17.598 27.126 17.598C31.0058 17.598 32.467 15.6134 32.467 12.8145V9.20136C32.467 7.87826 31.8119 7.52203 31.157 7.52203Z" fill="#644D3C"/>
</g>
</svg>
